# xmcd CD database file
#
# Track frame offsets:
#	150
#	24173
#	40270
#	60560
#	79568
#	97275
#	111115
#	127479
#	145919
#	159223
#	173496
#	192688
#	213476
#	233028
#	253294
#
# Disc length: 3632 seconds
#
# Revision: 0
# Processed by: cddbd v1.5.2PL0 Copyright (c) Steve Scherf et al.
# Submitted via: CDex 1.70beta2
#
DISCID=d30e2e0f
DTITLE=Various Artist - Salsa mania 2 - CD 3
DYEAR=1900
DGENRE=Salsa
TTITLE0=Alfredo De La Fé - La Gran Manzana
TTITLE1=Harvey - Me hace falta
TTITLE2=Lefty Pérez - Como se aprende
TTITLE3=Leo Vanelli - Te odio, te amo
TTITLE4=Color Latino - Hablame de ti
TTITLE5=Hector Tricoche - Por todas partes
TTITLE6=Adriel y su Orquestra - No se por donde empezar
TTITLE7=Warussi - Echando p'lante
TTITLE8=Joe King - Quédate
TTITLE9=Andy Montañez - Una aventura
TTITLE10=Johnny Ray - Si no la tengo
TTITLE11=Luisito Carrión and Bongolandia - Campana Mayoral
TTITLE12=Jesé Alberto "El Canario" - Quiero salsa
TTITLE13=Cuco Valoy - Que gobiernen las mujeres
TTITLE14=Orquestra La Palabra - El Temblor
EXTD=
EXTT0=
EXTT1=
EXTT2=
EXTT3=
EXTT4=
EXTT5=
EXTT6=
EXTT7=
EXTT8=
EXTT9=
EXTT10=
EXTT11=
EXTT12=
EXTT13=
EXTT14=
PLAYORDER=
